<svg width="1440" height="593" viewBox="0 0 1440 593" fill="none" xmlns="http://www.w3.org/2000/svg">
<mask id="mask0" mask-type="alpha" maskUnits="userSpaceOnUse" x="0" y="0" width="1440" height="593">
<rect width="1440" height="592.57" fill="white"/>
</mask>
<g mask="url(#mask0)">
<circle cx="993.797" cy="-39.8463" r="445.808" stroke="#E5E5E5" stroke-width="0.789041" stroke-dasharray="3.95 3.95"/>
<circle cx="1217.89" cy="473.819" r="271.43" stroke="#E5E5E5" stroke-width="0.789041" stroke-dasharray="3.95 3.95"/>
<circle cx="280.504" cy="505.381" r="5.91781" stroke="#1192EE" stroke-width="3.15616" stroke-linecap="round"/>
<circle cx="1323.92" cy="260.918" r="5.91781" stroke="#1192EE" stroke-width="3.15616" stroke-linecap="round"/>
<path d="M700.766 518.767C700.727 518.921 700.784 519.083 700.91 519.178C701.037 519.274 701.208 519.284 701.345 519.205L702.686 518.431C702.779 518.377 702.846 518.289 702.872 518.185L703.766 514.591L707.293 515.63C707.397 515.66 707.509 515.647 707.602 515.593L709.007 514.782C709.144 514.703 709.22 514.549 709.201 514.392C709.181 514.234 709.07 514.104 708.917 514.061L704.246 512.734L705.349 508.359C705.387 508.205 705.33 508.043 705.204 507.948C705.077 507.852 704.906 507.842 704.769 507.921L703.412 508.704C703.319 508.758 703.252 508.847 703.226 508.952L702.422 512.224L699.187 511.284C699.083 511.254 698.972 511.267 698.879 511.321L697.475 512.132C697.337 512.211 697.261 512.366 697.281 512.523C697.3 512.681 697.413 512.811 697.565 512.854L701.944 514.081L700.766 518.767Z" fill="#1192EE" stroke="#1192EE" stroke-width="0.789041" stroke-linecap="round" stroke-linejoin="round"/>
<circle cx="500.203" cy="113.203" r="445.808" stroke="#E5E5E5" stroke-width="0.789041" stroke-dasharray="3.95 3.95"/>
</g>
</svg>
